<?xml version="1.0" standalone="no"?>
<!DOCTYPE svg PUBLIC "-//W3C//DTD SVG 20010904//EN"
 "http://www.w3.org/TR/2001/REC-SVG-20010904/DTD/svg10.dtd">
<svg version="1.0" xmlns="http://www.w3.org/2000/svg"
 width="300.000000pt" height="69.000000pt" viewBox="0 0 300.000000 69.000000"
 preserveAspectRatio="xMidYMid meet">
<metadata>
Created by potrace 1.10, written by Peter Selinger 2001-2011
</metadata>
<g transform="translate(0.000000,69.000000) scale(0.100000,-0.100000)"
fill="#000000" stroke="none">
<path d="M7 604 c-11 -11 -9 -64 3 -64 5 0 14 -9 20 -21 9 -16 8 -26 -6 -47
-10 -15 -19 -39 -20 -54 l-2 -28 194 0 194 0 0 -90 0 -90 -90 0 -90 0 0 85 c0
82 -1 85 -20 73 -11 -7 -16 -16 -11 -21 5 -5 7 -32 4 -61 -3 -40 -1 -55 11
-65 13 -11 16 -35 16 -117 0 -57 4 -104 9 -104 4 0 11 32 15 71 9 101 15 109
76 102 43 -5 54 -2 94 24 42 28 44 32 31 50 -9 13 -13 39 -11 72 3 39 -1 57
-15 75 -11 13 -19 28 -19 33 0 8 -145 1 -250 -11 -25 -3 -59 -3 -77 0 l-31 6
21 35 c17 30 19 40 9 67 -7 18 -12 36 -12 40 0 3 83 6 185 6 145 -1 192 -5
216 -17 20 -10 44 -13 70 -9 49 8 50 5 47 -179 -3 -138 -3 -140 -25 -139 -13
0 -23 -3 -23 -8 0 -4 11 -8 24 -8 21 0 24 -4 20 -24 -2 -13 -10 -36 -18 -51
-12 -23 -12 -33 4 -78 21 -60 50 -76 50 -29 0 16 -7 35 -15 42 -19 16 -19 59
0 66 13 5 15 41 15 240 l0 234 -28 0 c-16 0 -32 -8 -40 -20 -15 -25 -58 -26
-71 -2 -9 17 -28 19 -228 21 -120 1 -222 -1 -226 -5z"/>
<path d="M2238 524 c-54 -16 -78 -44 -78 -90 0 -42 30 -69 67 -59 15 3 31 12
35 18 11 18 10 57 -2 57 -6 0 -13 7 -17 15 -8 21 25 55 53 55 39 0 54 -25 54
-93 0 -79 -32 -138 -124 -225 -56 -54 -66 -69 -66 -97 l0 -34 155 -3 155 -3 0
61 c0 34 3 76 6 93 9 42 -9 39 -25 -4 -8 -22 -20 -37 -34 -39 -27 -6 -197 -15
-197 -11 0 2 40 33 90 70 146 109 176 157 146 229 -25 59 -129 88 -218 60z
m185 -85 c11 -29 -7 -79 -27 -79 -11 0 -13 10 -11 43 2 23 4 48 4 55 1 21 25
8 34 -19z m6 -315 c11 -11 -15 -15 -103 -18 -94 -2 -124 3 -113 20 5 9 208 6
216 -2z"/>
<path d="M969 305 c-67 -180 -88 -225 -102 -225 -10 0 -15 -5 -12 -10 8 -13
105 -13 105 0 0 6 -12 10 -26 10 -28 0 -28 2 6 90 l18 45 65 3 65 3 21 -63
c26 -78 26 -78 -6 -78 -14 0 -23 -3 -19 -7 9 -9 216 -10 216 0 0 4 -6 7 -14 7
-15 0 -32 42 -126 303 -51 140 -54 147 -80 147 -26 0 -30 -8 -111 -225z m145
98 c59 -158 106 -286 106 -289 0 -2 -13 -4 -29 -4 -22 0 -31 6 -39 28 -18 46
-40 114 -58 177 -9 33 -21 64 -26 70 -10 11 -11 69 -1 78 14 15 22 4 47 -60z
m-59 -83 c14 -40 25 -76 25 -79 0 -3 -25 -4 -55 -3 -30 2 -55 6 -55 9 0 12 53
153 56 150 2 -2 15 -37 29 -77z"/>
<path d="M1310 520 c0 -5 11 -10 25 -10 l25 0 0 -215 0 -215 -27 0 c-14 0 -24
-3 -20 -6 10 -10 257 -12 257 -3 0 5 -20 9 -45 9 l-46 0 3 86 3 86 40 4 c125
10 175 51 175 141 0 103 -63 133 -275 133 -70 0 -115 -4 -115 -10z m247 -40
c16 -31 17 -129 2 -167 -12 -32 -26 -43 -56 -43 -23 0 -23 2 -23 121 l0 120
32 -3 c23 -2 36 -11 45 -28z m-117 -11 c7 -13 10 -79 8 -187 -3 -164 -3 -167
-25 -170 -27 -4 -25 -19 -27 198 -2 144 3 180 25 180 5 0 13 -9 19 -21z m205
-19 c35 -38 13 -130 -31 -130 -9 0 -13 20 -13 75 0 81 10 93 44 55z"/>
<path d="M1730 521 c0 -6 9 -11 20 -11 19 0 20 -7 20 -215 0 -208 -1 -215 -20
-215 -11 0 -20 -3 -20 -7 0 -5 56 -8 125 -9 69 -1 125 3 125 7 0 5 -18 9 -40
9 l-40 0 0 88 0 87 52 3 c62 3 132 32 147 60 17 33 21 95 8 131 -21 59 -66 74
-234 79 -102 3 -143 1 -143 -7z m240 -30 c5 -11 10 -55 10 -98 0 -89 -15 -123
-56 -123 l-24 0 0 120 0 120 30 0 c19 0 33 -7 40 -19z m-115 -11 c4 -6 7 -90
8 -186 1 -140 -1 -177 -12 -184 -37 -22 -41 -4 -41 184 0 101 3 186 7 189 10
10 31 8 38 -3z m209 -32 c30 -42 10 -128 -30 -128 -11 0 -14 16 -14 75 0 81
13 97 44 53z"/>
<path d="M2593 366 c-51 -90 -93 -169 -93 -175 0 -7 32 -11 90 -11 l90 0 0
-50 0 -50 -35 0 c-19 0 -35 -4 -35 -8 0 -4 52 -8 115 -7 63 0 115 3 115 8 0 4
-9 7 -19 7 -16 0 -20 9 -23 50 l-3 50 33 0 c27 0 32 -3 32 -25 0 -14 5 -25 10
-25 6 0 10 28 10 65 0 37 -4 65 -10 65 -5 0 -10 -13 -10 -30 0 -27 -3 -30 -32
-30 l-33 0 3 165 3 165 -58 0 -58 0 -92 -164z m155 111 c13 -15 19 -337 8
-356 -14 -22 -35 -11 -40 22 -6 40 -5 329 1 340 6 11 19 9 31 -6z m-68 -142
l0 -135 -79 0 -79 0 75 135 c42 74 77 135 79 135 2 0 4 -61 4 -135z"/>
<path d="M56 28 c-20 -28 -12 -37 12 -15 24 22 50 22 74 0 24 -22 32 -13 12
15 -21 30 -77 30 -98 0z"/>
</g>
</svg>
